<?xml version='1.0' encoding='UTF-8'?>
<!DOCTYPE score-partwise PUBLIC "-//Recordare//DTD MusicXML 3.0 Partwise//EN" "http://www.musicxml.org/dtds/partwise.dtd">
<score-partwise version='3.0'>
	<work>
		<work-title>Ups and Downs</work-title>
	</work>
	<identification>
		<creator type='composer'>M. Hartman</creator>
		<encoding>
			<software>Notion 229</software>
		</encoding>
	</identification>
	<defaults>
		<scaling>
			<millimeters>5.6444</millimeters>
			<tenths>40</tenths>
		</scaling>
		<page-layout>
			<page-height>1980</page-height>
			<page-width>1530</page-width>
			<page-margins type='both'>
				<left-margin>112</left-margin>
				<right-margin>112</right-margin>
				<top-margin>135</top-margin>
				<bottom-margin>112</bottom-margin>
			</page-margins>
		</page-layout>
	</defaults>
	<part-list>
		<score-part id='P1'>
			<part-name>Part</part-name>
			<score-instrument id='P1-I1'>
				<instrument-name>Part</instrument-name>
			</score-instrument>
			<midi-instrument id='P1-I1'>
				<midi-channel>1</midi-channel>
			</midi-instrument>
		</score-part>
	</part-list>
	<part id='P1'>
		<!--//////////////////// Part 1 | Measure 0 ////////////////////-->
		<measure number='0' implicit='yes'>
			<print>
				<staff-layout number='1'>
					<staff-distance>60</staff-distance>
				</staff-layout>
			</print>
			<attributes>
				<divisions>8</divisions>
				<key><fifths>1</fifths><mode>major</mode></key>
				<time><beats>4</beats><beat-type>4</beat-type></time>
				<staves>1</staves>
				<clef number='1'>
					<sign>G</sign>
					<line>2</line>
				</clef>
			</attributes>
			<direction>
				<direction-type>
					<words default-y='20'>Slow Blues</words>
				</direction-type>
				<direction-type>
					<metronome default-y='20'>
						<beat-unit>quarter</beat-unit>
						<per-minute>60</per-minute>
					</metronome>
				</direction-type>
				<sound tempo='60'/>
			</direction>
			<note>
				<pitch>
					<step>G</step>
					<octave>4</octave>
				</pitch>
				<duration>4</duration>
				<voice>1</voice>
				<type>eighth</type>
				<staff>1</staff>
			</note>
		</measure>
		<!--//////////////////// Part 1 | Measure 1 ////////////////////-->
		<measure number='1'>
			<attributes>
				<divisions>8</divisions>
			</attributes>
			<barline location='left'>
				<bar-style>heavy-light</bar-style>
				<repeat direction='forward'/>
			</barline>
			<harmony default-y='50'>
				<root>
					<root-step>G</root-step>
				</root>
				<kind>dominant</kind>
			</harmony>
			<note>
				<pitch>
					<step>B</step>
					<alter>-1.0</alter>
					<octave>4</octave>
				</pitch>
				<duration>4</duration>
				<voice>1</voice>
				<type>eighth</type>
				<accidental>flat</accidental>
				<staff>1</staff>
				<beam number='1'>begin</beam>
			</note>
			<note>
				<pitch>
					<step>B</step>
					<octave>4</octave>
				</pitch>
				<duration>4</duration>
				<voice>1</voice>
				<type>eighth</type>
				<accidental>natural</accidental>
				<staff>1</staff>
				<beam number='1'>continue</beam>
			</note>
			<note>
				<pitch>
					<step>C</step>
					<octave>5</octave>
				</pitch>
				<duration>4</duration>
				<voice>1</voice>
				<type>eighth</type>
				<staff>1</staff>
				<beam number='1'>continue</beam>
			</note>
			<note>
				<pitch>
					<step>C</step>
					<alter>1.0</alter>
					<octave>5</octave>
				</pitch>
				<duration>4</duration>
				<voice>1</voice>
				<type>eighth</type>
				<accidental>sharp</accidental>
				<staff>1</staff>
				<beam number='1'>end</beam>
			</note>
			<note>
				<pitch>
					<step>D</step>
					<octave>5</octave>
				</pitch>
				<duration>4</duration>
				<voice>1</voice>
				<type>eighth</type>
				<staff>1</staff>
				<beam number='1'>begin</beam>
			</note>
			<note>
				<pitch>
					<step>G</step>
					<octave>4</octave>
				</pitch>
				<duration>4</duration>
				<tie type='start'/>
				<voice>1</voice>
				<type>eighth</type>
				<staff>1</staff>
				<beam number='1'>end</beam>
				<notations>
					<tied type='start'/>
				</notations>
			</note>
			<note>
				<pitch>
					<step>G</step>
					<octave>4</octave>
				</pitch>
				<duration>8</duration>
				<tie type='stop'/>
				<voice>1</voice>
				<type>quarter</type>
				<staff>1</staff>
				<notations>
					<tied type='stop'/>
				</notations>
			</note>
		</measure>
		<!--//////////////////// Part 1 | Measure 2 ////////////////////-->
		<measure number='2'>
			<attributes>
				<divisions>8</divisions>
			</attributes>
			<harmony default-y='50'>
				<root>
					<root-step>C</root-step>
				</root>
				<kind>dominant</kind>
			</harmony>
			<note>
				<rest/>
				<duration>8</duration>
				<voice>1</voice>
				<type>quarter</type>
				<staff>1</staff>
			</note>
			<note>
				<rest/>
				<duration>4</duration>
				<voice>1</voice>
				<type>eighth</type>
				<staff>1</staff>
			</note>
			<note>
				<pitch>
					<step>E</step>
					<octave>5</octave>
				</pitch>
				<duration>4</duration>
				<voice>1</voice>
				<type>eighth</type>
				<staff>1</staff>
			</note>
			<note>
				<rest/>
				<duration>4</duration>
				<voice>1</voice>
				<type>eighth</type>
				<staff>1</staff>
			</note>
			<note>
				<pitch>
					<step>D</step>
					<octave>5</octave>
				</pitch>
				<duration>4</duration>
				<voice>1</voice>
				<type>eighth</type>
				<staff>1</staff>
			</note>
			<note>
				<pitch>
					<step>B</step>
					<alter>-1.0</alter>
					<octave>4</octave>
				</pitch>
				<duration>4</duration>
				<voice>1</voice>
				<type>eighth</type>
				<accidental>flat</accidental>
				<staff>1</staff>
				<beam number='1'>begin</beam>
			</note>
			<note>
				<pitch>
					<step>A</step>
					<octave>4</octave>
				</pitch>
				<duration>4</duration>
				<voice>1</voice>
				<type>eighth</type>
				<staff>1</staff>
				<beam number='1'>end</beam>
			</note>
		</measure>
		<!--//////////////////// Part 1 | Measure 3 ////////////////////-->
		<measure number='3'>
			<attributes>
				<divisions>8</divisions>
			</attributes>
			<harmony default-y='50'>
				<root>
					<root-step>G</root-step>
				</root>
				<kind>dominant</kind>
			</harmony>
			<note>
				<pitch>
					<step>G</step>
					<octave>4</octave>
				</pitch>
				<duration>24</duration>
				<voice>1</voice>
				<type>half</type>
				<dot/>
				<staff>1</staff>
			</note>
			<note>
				<pitch>
					<step>E</step>
					<octave>4</octave>
				</pitch>
				<duration>4</duration>
				<voice>1</voice>
				<type>eighth</type>
				<staff>1</staff>
				<beam number='1'>begin</beam>
			</note>
			<note>
				<pitch>
					<step>D</step>
					<octave>4</octave>
				</pitch>
				<duration>4</duration>
				<tie type='start'/>
				<voice>1</voice>
				<type>eighth</type>
				<staff>1</staff>
				<beam number='1'>end</beam>
				<notations>
					<tied type='start'/>
				</notations>
			</note>
		</measure>
		<!--//////////////////// Part 1 | Measure 4 ////////////////////-->
		<measure number='4'>
			<attributes>
				<divisions>8</divisions>
			</attributes>
			<note>
				<pitch>
					<step>D</step>
					<octave>4</octave>
				</pitch>
				<duration>24</duration>
				<tie type='stop'/>
				<voice>1</voice>
				<type>half</type>
				<dot/>
				<staff>1</staff>
				<notations>
					<tied type='stop'/>
				</notations>
			</note>
			<note>
				<rest/>
				<duration>4</duration>
				<voice>1</voice>
				<type>eighth</type>
				<staff>1</staff>
			</note>
			<note>
				<pitch>
					<step>G</step>
					<octave>4</octave>
				</pitch>
				<duration>4</duration>
				<voice>1</voice>
				<type>eighth</type>
				<staff>1</staff>
			</note>
		</measure>
		<!--//////////////////// Part 1 | Measure 5 ////////////////////-->
		<measure number='5'>
			<attributes>
				<divisions>8</divisions>
			</attributes>
			<harmony default-y='50'>
				<root>
					<root-step>C</root-step>
				</root>
				<kind>dominant</kind>
			</harmony>
			<note>
				<pitch>
					<step>B</step>
					<alter>-1.0</alter>
					<octave>4</octave>
				</pitch>
				<duration>4</duration>
				<voice>1</voice>
				<type>eighth</type>
				<accidental>flat</accidental>
				<staff>1</staff>
				<beam number='1'>begin</beam>
			</note>
			<note>
				<pitch>
					<step>B</step>
					<octave>4</octave>
				</pitch>
				<duration>4</duration>
				<voice>1</voice>
				<type>eighth</type>
				<accidental>natural</accidental>
				<staff>1</staff>
				<beam number='1'>continue</beam>
			</note>
			<note>
				<pitch>
					<step>C</step>
					<octave>5</octave>
				</pitch>
				<duration>4</duration>
				<voice>1</voice>
				<type>eighth</type>
				<staff>1</staff>
				<beam number='1'>continue</beam>
			</note>
			<note>
				<pitch>
					<step>C</step>
					<alter>1.0</alter>
					<octave>5</octave>
				</pitch>
				<duration>4</duration>
				<voice>1</voice>
				<type>eighth</type>
				<accidental>sharp</accidental>
				<staff>1</staff>
				<beam number='1'>end</beam>
			</note>
			<note>
				<pitch>
					<step>D</step>
					<octave>5</octave>
				</pitch>
				<duration>4</duration>
				<voice>1</voice>
				<type>eighth</type>
				<staff>1</staff>
				<beam number='1'>begin</beam>
			</note>
			<note>
				<pitch>
					<step>C</step>
					<octave>5</octave>
				</pitch>
				<duration>4</duration>
				<tie type='start'/>
				<voice>1</voice>
				<type>eighth</type>
				<accidental>natural</accidental>
				<staff>1</staff>
				<beam number='1'>end</beam>
				<notations>
					<tied type='start'/>
				</notations>
			</note>
			<note>
				<pitch>
					<step>C</step>
					<octave>5</octave>
				</pitch>
				<duration>8</duration>
				<tie type='stop'/>
				<voice>1</voice>
				<type>quarter</type>
				<staff>1</staff>
				<notations>
					<tied type='stop'/>
				</notations>
			</note>
		</measure>
		<!--//////////////////// Part 1 | Measure 6 ////////////////////-->
		<measure number='6'>
			<attributes>
				<divisions>8</divisions>
			</attributes>
			<note>
				<rest/>
				<duration>8</duration>
				<voice>1</voice>
				<type>quarter</type>
				<staff>1</staff>
			</note>
			<note>
				<rest/>
				<duration>4</duration>
				<voice>1</voice>
				<type>eighth</type>
				<staff>1</staff>
			</note>
			<note>
				<pitch>
					<step>E</step>
					<octave>5</octave>
				</pitch>
				<duration>4</duration>
				<voice>1</voice>
				<type>eighth</type>
				<staff>1</staff>
			</note>
			<note>
				<rest/>
				<duration>4</duration>
				<voice>1</voice>
				<type>eighth</type>
				<staff>1</staff>
			</note>
			<note>
				<pitch>
					<step>D</step>
					<octave>5</octave>
				</pitch>
				<duration>4</duration>
				<voice>1</voice>
				<type>eighth</type>
				<staff>1</staff>
			</note>
			<note>
				<pitch>
					<step>B</step>
					<alter>-1.0</alter>
					<octave>4</octave>
				</pitch>
				<duration>4</duration>
				<voice>1</voice>
				<type>eighth</type>
				<accidental>flat</accidental>
				<staff>1</staff>
				<beam number='1'>begin</beam>
			</note>
			<note>
				<pitch>
					<step>A</step>
					<octave>4</octave>
				</pitch>
				<duration>4</duration>
				<voice>1</voice>
				<type>eighth</type>
				<staff>1</staff>
				<beam number='1'>end</beam>
			</note>
		</measure>
		<!--//////////////////// Part 1 | Measure 7 ////////////////////-->
		<measure number='7'>
			<attributes>
				<divisions>8</divisions>
			</attributes>
			<harmony default-y='50'>
				<root>
					<root-step>G</root-step>
				</root>
				<kind>dominant</kind>
			</harmony>
			<note>
				<pitch>
					<step>G</step>
					<octave>4</octave>
				</pitch>
				<duration>24</duration>
				<voice>1</voice>
				<type>half</type>
				<dot/>
				<staff>1</staff>
			</note>
			<note>
				<pitch>
					<step>E</step>
					<octave>4</octave>
				</pitch>
				<duration>4</duration>
				<voice>1</voice>
				<type>eighth</type>
				<staff>1</staff>
				<beam number='1'>begin</beam>
			</note>
			<note>
				<pitch>
					<step>D</step>
					<octave>4</octave>
				</pitch>
				<duration>4</duration>
				<tie type='start'/>
				<voice>1</voice>
				<type>eighth</type>
				<staff>1</staff>
				<beam number='1'>end</beam>
				<notations>
					<tied type='start'/>
				</notations>
			</note>
		</measure>
		<!--//////////////////// Part 1 | Measure 8 ////////////////////-->
		<measure number='8'>
			<attributes>
				<divisions>32</divisions>
			</attributes>
			<note>
				<pitch>
					<step>D</step>
					<octave>4</octave>
				</pitch>
				<duration>96</duration>
				<tie type='stop'/>
				<voice>1</voice>
				<type>half</type>
				<dot/>
				<staff>1</staff>
				<notations>
					<tied type='stop'/>
				</notations>
			</note>
			<note>
				<pitch>
					<step>G</step>
					<octave>4</octave>
				</pitch>
				<duration>16</duration>
				<voice>1</voice>
				<type>eighth</type>
				<staff>1</staff>
				<beam number='1'>begin</beam>
			</note>
			<note>
				<pitch>
					<step>B</step>
					<alter>-1.0</alter>
					<octave>4</octave>
				</pitch>
				<duration>4</duration>
				<voice>1</voice>
				<type>32nd</type>
				<accidental>flat</accidental>
				<staff>1</staff>
				<beam number='1'>continue</beam>
				<beam number='2'>begin</beam>
				<beam number='3'>begin</beam>
			</note>
			<note>
				<pitch>
					<step>B</step>
					<octave>4</octave>
				</pitch>
				<duration>4</duration>
				<voice>1</voice>
				<type>32nd</type>
				<accidental>natural</accidental>
				<staff>1</staff>
				<beam number='1'>continue</beam>
				<beam number='2'>continue</beam>
				<beam number='3'>continue</beam>
			</note>
			<note>
				<pitch>
					<step>C</step>
					<octave>5</octave>
				</pitch>
				<duration>4</duration>
				<voice>1</voice>
				<type>32nd</type>
				<staff>1</staff>
				<beam number='1'>continue</beam>
				<beam number='2'>continue</beam>
				<beam number='3'>continue</beam>
			</note>
			<note>
				<pitch>
					<step>C</step>
					<alter>1.0</alter>
					<octave>5</octave>
				</pitch>
				<duration>4</duration>
				<voice>1</voice>
				<type>32nd</type>
				<accidental>sharp</accidental>
				<staff>1</staff>
				<beam number='1'>end</beam>
				<beam number='2'>end</beam>
				<beam number='3'>end</beam>
			</note>
		</measure>
		<!--//////////////////// Part 1 | Measure 9 ////////////////////-->
		<measure number='9'>
			<attributes>
				<divisions>8</divisions>
			</attributes>
			<harmony default-y='50'>
				<root>
					<root-step>D</root-step>
				</root>
				<kind>dominant</kind>
			</harmony>
			<note>
				<pitch>
					<step>D</step>
					<octave>5</octave>
				</pitch>
				<duration>4</duration>
				<voice>1</voice>
				<type>eighth</type>
				<staff>1</staff>
				<beam number='1'>begin</beam>
			</note>
			<note>
				<pitch>
					<step>C</step>
					<alter>1.0</alter>
					<octave>5</octave>
				</pitch>
				<duration>4</duration>
				<voice>1</voice>
				<type>eighth</type>
				<accidental>sharp</accidental>
				<staff>1</staff>
				<beam number='1'>continue</beam>
			</note>
			<note>
				<pitch>
					<step>D</step>
					<octave>5</octave>
				</pitch>
				<duration>4</duration>
				<voice>1</voice>
				<type>eighth</type>
				<staff>1</staff>
				<beam number='1'>continue</beam>
			</note>
			<note>
				<pitch>
					<step>C</step>
					<alter>1.0</alter>
					<octave>5</octave>
				</pitch>
				<duration>4</duration>
				<voice>1</voice>
				<type>eighth</type>
				<staff>1</staff>
				<beam number='1'>end</beam>
			</note>
			<note>
				<pitch>
					<step>D</step>
					<octave>5</octave>
				</pitch>
				<duration>4</duration>
				<voice>1</voice>
				<type>eighth</type>
				<staff>1</staff>
				<beam number='1'>begin</beam>
			</note>
			<note>
				<pitch>
					<step>C</step>
					<octave>5</octave>
				</pitch>
				<duration>4</duration>
				<tie type='start'/>
				<voice>1</voice>
				<type>eighth</type>
				<accidental>natural</accidental>
				<staff>1</staff>
				<beam number='1'>end</beam>
				<notations>
					<tied type='start'/>
				</notations>
			</note>
			<note>
				<pitch>
					<step>C</step>
					<octave>5</octave>
				</pitch>
				<duration>8</duration>
				<tie type='stop'/>
				<voice>1</voice>
				<type>quarter</type>
				<staff>1</staff>
				<notations>
					<tied type='stop'/>
				</notations>
			</note>
		</measure>
		<!--//////////////////// Part 1 | Measure 10 ////////////////////-->
		<measure number='10'>
			<attributes>
				<divisions>8</divisions>
			</attributes>
			<harmony default-y='50'>
				<root>
					<root-step>C</root-step>
				</root>
				<kind>dominant</kind>
			</harmony>
			<note>
				<rest/>
				<duration>8</duration>
				<voice>1</voice>
				<type>quarter</type>
				<staff>1</staff>
			</note>
			<note>
				<pitch>
					<step>B</step>
					<alter>-1.0</alter>
					<octave>4</octave>
				</pitch>
				<duration>4</duration>
				<voice>1</voice>
				<type>eighth</type>
				<accidental>flat</accidental>
				<staff>1</staff>
				<beam number='1'>begin</beam>
			</note>
			<note>
				<pitch>
					<step>A</step>
					<octave>4</octave>
				</pitch>
				<duration>4</duration>
				<tie type='start'/>
				<voice>1</voice>
				<type>eighth</type>
				<staff>1</staff>
				<beam number='1'>end</beam>
				<notations>
					<tied type='start'/>
				</notations>
			</note>
			<note>
				<pitch>
					<step>A</step>
					<octave>4</octave>
				</pitch>
				<duration>4</duration>
				<tie type='stop'/>
				<voice>1</voice>
				<type>eighth</type>
				<staff>1</staff>
				<beam number='1'>begin</beam>
				<notations>
					<tied type='stop'/>
				</notations>
			</note>
			<note>
				<pitch>
					<step>G</step>
					<octave>4</octave>
				</pitch>
				<duration>4</duration>
				<voice>1</voice>
				<type>eighth</type>
				<staff>1</staff>
				<beam number='1'>continue</beam>
			</note>
			<note>
				<pitch>
					<step>E</step>
					<octave>4</octave>
				</pitch>
				<duration>4</duration>
				<voice>1</voice>
				<type>eighth</type>
				<staff>1</staff>
				<beam number='1'>continue</beam>
			</note>
			<note>
				<pitch>
					<step>D</step>
					<octave>4</octave>
				</pitch>
				<duration>4</duration>
				<voice>1</voice>
				<type>eighth</type>
				<staff>1</staff>
				<beam number='1'>end</beam>
			</note>
		</measure>
		<!--//////////////////// Part 1 | Measure 11 ////////////////////-->
		<measure number='11'>
			<attributes>
				<divisions>8</divisions>
			</attributes>
			<barline location='left'>
				<ending type='start' number='1'/>
			</barline>
			<harmony default-y='50'>
				<root>
					<root-step>G</root-step>
				</root>
				<kind>dominant</kind>
			</harmony>
			<note>
				<pitch>
					<step>G</step>
					<octave>4</octave>
				</pitch>
				<duration>24</duration>
				<voice>1</voice>
				<type>half</type>
				<dot/>
				<staff>1</staff>
			</note>
			<note>
				<pitch>
					<step>E</step>
					<octave>4</octave>
				</pitch>
				<duration>4</duration>
				<voice>1</voice>
				<type>eighth</type>
				<staff>1</staff>
				<beam number='1'>begin</beam>
			</note>
			<note>
				<pitch>
					<step>D</step>
					<octave>4</octave>
				</pitch>
				<duration>4</duration>
				<tie type='start'/>
				<voice>1</voice>
				<type>eighth</type>
				<staff>1</staff>
				<beam number='1'>end</beam>
				<notations>
					<tied type='start'/>
				</notations>
			</note>
		</measure>
		<!--//////////////////// Part 1 | Measure 12 ////////////////////-->
		<measure number='12'>
			<attributes>
				<divisions>8</divisions>
			</attributes>
			<harmony default-y='50'>
				<root>
					<root-step>D</root-step>
				</root>
				<kind>dominant</kind>
			</harmony>
			<note>
				<pitch>
					<step>D</step>
					<octave>4</octave>
				</pitch>
				<duration>24</duration>
				<tie type='stop'/>
				<voice>1</voice>
				<type>half</type>
				<dot/>
				<staff>1</staff>
				<notations>
					<tied type='stop'/>
				</notations>
			</note>
			<note>
				<rest/>
				<duration>4</duration>
				<voice>1</voice>
				<type>eighth</type>
				<staff>1</staff>
			</note>
			<note>
				<pitch>
					<step>G</step>
					<octave>4</octave>
				</pitch>
				<duration>4</duration>
				<voice>1</voice>
				<type>eighth</type>
				<staff>1</staff>
			</note>
			<barline location='right'>
				<bar-style>light-heavy</bar-style>
				<ending type='stop' number='1'/>
				<repeat direction='backward'/>
			</barline>
		</measure>
		<!--//////////////////// Part 1 | Measure 13 ////////////////////-->
		<measure number='13'>
			<attributes>
				<divisions>8</divisions>
			</attributes>
			<barline location='left'>
				<ending type='start' number='2'/>
			</barline>
			<harmony default-y='50'>
				<root>
					<root-step>G</root-step>
				</root>
				<kind>dominant</kind>
			</harmony>
			<note>
				<pitch>
					<step>G</step>
					<octave>4</octave>
				</pitch>
				<duration>24</duration>
				<voice>1</voice>
				<type>half</type>
				<dot/>
				<staff>1</staff>
			</note>
			<note>
				<pitch>
					<step>E</step>
					<octave>4</octave>
				</pitch>
				<duration>4</duration>
				<voice>1</voice>
				<type>eighth</type>
				<staff>1</staff>
				<beam number='1'>begin</beam>
			</note>
			<direction>
				<direction-type>
					<words default-y='20'>To Coda</words>
				</direction-type>
			</direction>
			<note>
				<pitch>
					<step>D</step>
					<octave>4</octave>
				</pitch>
				<duration>4</duration>
				<tie type='start'/>
				<voice>1</voice>
				<type>eighth</type>
				<staff>1</staff>
				<beam number='1'>end</beam>
				<notations>
					<tied type='start'/>
				</notations>
			</note>
			<barline location='right'>
				<ending type='discontinue' number='2'/>
			</barline>
		</measure>
		<!--//////////////////// Part 1 | Measure 14 ////////////////////-->
		<measure number='14'>
			<attributes>
				<divisions>8</divisions>
			</attributes>
			<harmony default-y='50'>
				<root>
					<root-step>D</root-step>
				</root>
				<kind>dominant</kind>
			</harmony>
			<note>
				<pitch>
					<step>D</step>
					<octave>4</octave>
				</pitch>
				<duration>24</duration>
				<tie type='stop'/>
				<voice>1</voice>
				<type>half</type>
				<dot/>
				<staff>1</staff>
				<notations>
					<tied type='stop'/>
				</notations>
			</note>
			<note>
				<rest/>
				<duration>4</duration>
				<voice>1</voice>
				<type>eighth</type>
				<staff>1</staff>
			</note>
			<note>
				<pitch>
					<step>B</step>
					<octave>3</octave>
				</pitch>
				<duration>4</duration>
				<voice>1</voice>
				<type>eighth</type>
				<staff>1</staff>
			</note>
		</measure>
		<!--//////////////////// Part 1 | Measure 15 ////////////////////-->
		<measure number='15'>
			<attributes>
				<divisions>24</divisions>
			</attributes>
			<barline location='left'>
				<bar-style>light-light</bar-style>
			</barline>
			<harmony default-y='50'>
				<root>
					<root-step>C</root-step>
				</root>
				<kind>dominant</kind>
			</harmony>
			<note>
				<pitch>
					<step>C</step>
					<octave>4</octave>
				</pitch>
				<duration>12</duration>
				<voice>1</voice>
				<type>eighth</type>
				<staff>1</staff>
				<beam number='1'>begin</beam>
			</note>
			<note>
				<pitch>
					<step>E</step>
					<alter>-1.0</alter>
					<octave>4</octave>
				</pitch>
				<duration>12</duration>
				<voice>1</voice>
				<type>eighth</type>
				<accidental>flat</accidental>
				<staff>1</staff>
				<beam number='1'>end</beam>
			</note>
			<note>
				<pitch>
					<step>E</step>
					<octave>4</octave>
				</pitch>
				<duration>8</duration>
				<voice>1</voice>
				<type>eighth</type>
				<accidental>natural</accidental>
				<time-modification>
					<actual-notes>3</actual-notes>
					<normal-notes>2</normal-notes>
				</time-modification>
				<staff>1</staff>
				<beam number='1'>begin</beam>
				<notations>
					<tuplet type='start' number='1'/>
				</notations>
			</note>
			<note>
				<pitch>
					<step>G</step>
					<octave>4</octave>
				</pitch>
				<duration>8</duration>
				<voice>1</voice>
				<type>eighth</type>
				<time-modification>
					<actual-notes>3</actual-notes>
					<normal-notes>2</normal-notes>
				</time-modification>
				<staff>1</staff>
				<beam number='1'>continue</beam>
			</note>
			<note>
				<pitch>
					<step>A</step>
					<octave>4</octave>
				</pitch>
				<duration>8</duration>
				<voice>1</voice>
				<type>eighth</type>
				<time-modification>
					<actual-notes>3</actual-notes>
					<normal-notes>2</normal-notes>
				</time-modification>
				<staff>1</staff>
				<beam number='1'>end</beam>
				<notations>
					<tuplet type='stop' number='1'/>
				</notations>
			</note>
			<note>
				<pitch>
					<step>B</step>
					<alter>-1.0</alter>
					<octave>4</octave>
				</pitch>
				<duration>12</duration>
				<voice>1</voice>
				<type>eighth</type>
				<accidental>flat</accidental>
				<staff>1</staff>
				<beam number='1'>begin</beam>
			</note>
			<note>
				<pitch>
					<step>A</step>
					<octave>4</octave>
				</pitch>
				<duration>12</duration>
				<tie type='start'/>
				<voice>1</voice>
				<type>eighth</type>
				<staff>1</staff>
				<beam number='1'>end</beam>
				<notations>
					<tied type='start'/>
				</notations>
			</note>
			<note>
				<pitch>
					<step>A</step>
					<octave>4</octave>
				</pitch>
				<duration>24</duration>
				<tie type='stop'/>
				<voice>1</voice>
				<type>quarter</type>
				<staff>1</staff>
				<notations>
					<tied type='stop'/>
				</notations>
			</note>
		</measure>
		<!--//////////////////// Part 1 | Measure 16 ////////////////////-->
		<measure number='16'>
			<attributes>
				<divisions>24</divisions>
			</attributes>
			<note>
				<rest/>
				<duration>12</duration>
				<voice>1</voice>
				<type>eighth</type>
				<staff>1</staff>
			</note>
			<note>
				<pitch>
					<step>E</step>
					<alter>-1.0</alter>
					<octave>4</octave>
				</pitch>
				<duration>12</duration>
				<voice>1</voice>
				<type>eighth</type>
				<accidental>flat</accidental>
				<staff>1</staff>
			</note>
			<note>
				<pitch>
					<step>E</step>
					<octave>4</octave>
				</pitch>
				<duration>8</duration>
				<voice>1</voice>
				<type>eighth</type>
				<accidental>natural</accidental>
				<time-modification>
					<actual-notes>3</actual-notes>
					<normal-notes>2</normal-notes>
				</time-modification>
				<staff>1</staff>
				<beam number='1'>begin</beam>
				<notations>
					<tuplet type='start' number='1'/>
				</notations>
			</note>
			<note>
				<pitch>
					<step>G</step>
					<octave>4</octave>
				</pitch>
				<duration>8</duration>
				<voice>1</voice>
				<type>eighth</type>
				<time-modification>
					<actual-notes>3</actual-notes>
					<normal-notes>2</normal-notes>
				</time-modification>
				<staff>1</staff>
				<beam number='1'>continue</beam>
			</note>
			<note>
				<pitch>
					<step>A</step>
					<octave>4</octave>
				</pitch>
				<duration>8</duration>
				<voice>1</voice>
				<type>eighth</type>
				<time-modification>
					<actual-notes>3</actual-notes>
					<normal-notes>2</normal-notes>
				</time-modification>
				<staff>1</staff>
				<beam number='1'>end</beam>
				<notations>
					<tuplet type='stop' number='1'/>
				</notations>
			</note>
			<note>
				<pitch>
					<step>B</step>
					<alter>-1.0</alter>
					<octave>4</octave>
				</pitch>
				<duration>12</duration>
				<voice>1</voice>
				<type>eighth</type>
				<accidental>flat</accidental>
				<staff>1</staff>
				<beam number='1'>begin</beam>
			</note>
			<note>
				<pitch>
					<step>A</step>
					<octave>4</octave>
				</pitch>
				<duration>12</duration>
				<voice>1</voice>
				<type>eighth</type>
				<staff>1</staff>
				<beam number='1'>continue</beam>
			</note>
			<note>
				<pitch>
					<step>G</step>
					<octave>4</octave>
				</pitch>
				<duration>12</duration>
				<voice>1</voice>
				<type>eighth</type>
				<staff>1</staff>
				<beam number='1'>continue</beam>
			</note>
			<note>
				<pitch>
					<step>E</step>
					<octave>4</octave>
				</pitch>
				<duration>12</duration>
				<voice>1</voice>
				<type>eighth</type>
				<staff>1</staff>
				<beam number='1'>end</beam>
			</note>
		</measure>
		<!--//////////////////// Part 1 | Measure 17 ////////////////////-->
		<measure number='17'>
			<attributes>
				<divisions>8</divisions>
			</attributes>
			<harmony default-y='50'>
				<root>
					<root-step>G</root-step>
				</root>
				<kind>dominant</kind>
			</harmony>
			<note>
				<pitch>
					<step>G</step>
					<octave>4</octave>
				</pitch>
				<duration>24</duration>
				<voice>1</voice>
				<type>half</type>
				<dot/>
				<staff>1</staff>
			</note>
			<note>
				<pitch>
					<step>E</step>
					<octave>4</octave>
				</pitch>
				<duration>4</duration>
				<voice>1</voice>
				<type>eighth</type>
				<staff>1</staff>
				<beam number='1'>begin</beam>
			</note>
			<note>
				<pitch>
					<step>D</step>
					<octave>4</octave>
				</pitch>
				<duration>4</duration>
				<tie type='start'/>
				<voice>1</voice>
				<type>eighth</type>
				<staff>1</staff>
				<beam number='1'>end</beam>
				<notations>
					<tied type='start'/>
				</notations>
			</note>
		</measure>
		<!--//////////////////// Part 1 | Measure 18 ////////////////////-->
		<measure number='18'>
			<attributes>
				<divisions>8</divisions>
			</attributes>
			<note>
				<pitch>
					<step>D</step>
					<octave>4</octave>
				</pitch>
				<duration>24</duration>
				<tie type='stop'/>
				<voice>1</voice>
				<type>half</type>
				<dot/>
				<staff>1</staff>
				<notations>
					<tied type='stop'/>
				</notations>
			</note>
			<note>
				<rest/>
				<duration>4</duration>
				<voice>1</voice>
				<type>eighth</type>
				<staff>1</staff>
			</note>
			<note>
				<pitch>
					<step>B</step>
					<octave>3</octave>
				</pitch>
				<duration>4</duration>
				<voice>1</voice>
				<type>eighth</type>
				<staff>1</staff>
			</note>
		</measure>
		<!--//////////////////// Part 1 | Measure 19 ////////////////////-->
		<measure number='19'>
			<attributes>
				<divisions>24</divisions>
			</attributes>
			<harmony default-y='50'>
				<root>
					<root-step>C</root-step>
				</root>
				<kind>dominant</kind>
			</harmony>
			<note>
				<pitch>
					<step>C</step>
					<octave>4</octave>
				</pitch>
				<duration>12</duration>
				<voice>1</voice>
				<type>eighth</type>
				<staff>1</staff>
				<beam number='1'>begin</beam>
			</note>
			<note>
				<pitch>
					<step>E</step>
					<alter>-1.0</alter>
					<octave>4</octave>
				</pitch>
				<duration>12</duration>
				<voice>1</voice>
				<type>eighth</type>
				<accidental>flat</accidental>
				<staff>1</staff>
				<beam number='1'>end</beam>
			</note>
			<note>
				<pitch>
					<step>E</step>
					<octave>4</octave>
				</pitch>
				<duration>8</duration>
				<voice>1</voice>
				<type>eighth</type>
				<accidental>natural</accidental>
				<time-modification>
					<actual-notes>3</actual-notes>
					<normal-notes>2</normal-notes>
				</time-modification>
				<staff>1</staff>
				<beam number='1'>begin</beam>
				<notations>
					<tuplet type='start' number='1'/>
				</notations>
			</note>
			<note>
				<pitch>
					<step>G</step>
					<octave>4</octave>
				</pitch>
				<duration>8</duration>
				<voice>1</voice>
				<type>eighth</type>
				<time-modification>
					<actual-notes>3</actual-notes>
					<normal-notes>2</normal-notes>
				</time-modification>
				<staff>1</staff>
				<beam number='1'>continue</beam>
			</note>
			<note>
				<pitch>
					<step>A</step>
					<octave>4</octave>
				</pitch>
				<duration>8</duration>
				<voice>1</voice>
				<type>eighth</type>
				<time-modification>
					<actual-notes>3</actual-notes>
					<normal-notes>2</normal-notes>
				</time-modification>
				<staff>1</staff>
				<beam number='1'>end</beam>
				<notations>
					<tuplet type='stop' number='1'/>
				</notations>
			</note>
			<note>
				<pitch>
					<step>B</step>
					<alter>-1.0</alter>
					<octave>4</octave>
				</pitch>
				<duration>12</duration>
				<voice>1</voice>
				<type>eighth</type>
				<accidental>flat</accidental>
				<staff>1</staff>
				<beam number='1'>begin</beam>
			</note>
			<note>
				<pitch>
					<step>A</step>
					<octave>4</octave>
				</pitch>
				<duration>12</duration>
				<tie type='start'/>
				<voice>1</voice>
				<type>eighth</type>
				<staff>1</staff>
				<beam number='1'>end</beam>
				<notations>
					<tied type='start'/>
				</notations>
			</note>
			<note>
				<pitch>
					<step>A</step>
					<octave>4</octave>
				</pitch>
				<duration>24</duration>
				<tie type='stop'/>
				<voice>1</voice>
				<type>quarter</type>
				<staff>1</staff>
				<notations>
					<tied type='stop'/>
				</notations>
			</note>
		</measure>
		<!--//////////////////// Part 1 | Measure 20 ////////////////////-->
		<measure number='20'>
			<attributes>
				<divisions>24</divisions>
			</attributes>
			<note>
				<rest/>
				<duration>12</duration>
				<voice>1</voice>
				<type>eighth</type>
				<staff>1</staff>
			</note>
			<note>
				<pitch>
					<step>E</step>
					<alter>-1.0</alter>
					<octave>4</octave>
				</pitch>
				<duration>12</duration>
				<voice>1</voice>
				<type>eighth</type>
				<accidental>flat</accidental>
				<staff>1</staff>
			</note>
			<note>
				<pitch>
					<step>E</step>
					<octave>4</octave>
				</pitch>
				<duration>8</duration>
				<voice>1</voice>
				<type>eighth</type>
				<accidental>natural</accidental>
				<time-modification>
					<actual-notes>3</actual-notes>
					<normal-notes>2</normal-notes>
				</time-modification>
				<staff>1</staff>
				<beam number='1'>begin</beam>
				<notations>
					<tuplet type='start' number='1'/>
				</notations>
			</note>
			<note>
				<pitch>
					<step>G</step>
					<octave>4</octave>
				</pitch>
				<duration>8</duration>
				<voice>1</voice>
				<type>eighth</type>
				<time-modification>
					<actual-notes>3</actual-notes>
					<normal-notes>2</normal-notes>
				</time-modification>
				<staff>1</staff>
				<beam number='1'>continue</beam>
			</note>
			<note>
				<pitch>
					<step>A</step>
					<octave>4</octave>
				</pitch>
				<duration>8</duration>
				<voice>1</voice>
				<type>eighth</type>
				<time-modification>
					<actual-notes>3</actual-notes>
					<normal-notes>2</normal-notes>
				</time-modification>
				<staff>1</staff>
				<beam number='1'>end</beam>
				<notations>
					<tuplet type='stop' number='1'/>
				</notations>
			</note>
			<note>
				<pitch>
					<step>B</step>
					<alter>-1.0</alter>
					<octave>4</octave>
				</pitch>
				<duration>12</duration>
				<voice>1</voice>
				<type>eighth</type>
				<accidental>flat</accidental>
				<staff>1</staff>
				<beam number='1'>begin</beam>
			</note>
			<note>
				<pitch>
					<step>A</step>
					<octave>4</octave>
				</pitch>
				<duration>12</duration>
				<voice>1</voice>
				<type>eighth</type>
				<staff>1</staff>
				<beam number='1'>continue</beam>
			</note>
			<note>
				<pitch>
					<step>G</step>
					<octave>4</octave>
				</pitch>
				<duration>12</duration>
				<voice>1</voice>
				<type>eighth</type>
				<staff>1</staff>
				<beam number='1'>continue</beam>
			</note>
			<note>
				<pitch>
					<step>E</step>
					<octave>4</octave>
				</pitch>
				<duration>12</duration>
				<voice>1</voice>
				<type>eighth</type>
				<staff>1</staff>
				<beam number='1'>end</beam>
			</note>
		</measure>
		<!--//////////////////// Part 1 | Measure 21 ////////////////////-->
		<measure number='21'>
			<attributes>
				<divisions>12</divisions>
			</attributes>
			<harmony default-y='50'>
				<root>
					<root-step>D</root-step>
				</root>
				<kind>dominant</kind>
			</harmony>
			<note>
				<pitch>
					<step>F</step>
					<alter>1.0</alter>
					<octave>4</octave>
				</pitch>
				<duration>8</duration>
				<voice>1</voice>
				<type>quarter</type>
				<time-modification>
					<actual-notes>3</actual-notes>
					<normal-notes>2</normal-notes>
				</time-modification>
				<staff>1</staff>
				<notations>
					<tuplet type='start' number='1'/>
				</notations>
			</note>
			<note>
				<pitch>
					<step>A</step>
					<octave>4</octave>
				</pitch>
				<duration>8</duration>
				<voice>1</voice>
				<type>quarter</type>
				<time-modification>
					<actual-notes>3</actual-notes>
					<normal-notes>2</normal-notes>
				</time-modification>
				<staff>1</staff>
			</note>
			<note>
				<pitch>
					<step>F</step>
					<alter>1.0</alter>
					<octave>4</octave>
				</pitch>
				<duration>8</duration>
				<voice>1</voice>
				<type>quarter</type>
				<time-modification>
					<actual-notes>3</actual-notes>
					<normal-notes>2</normal-notes>
				</time-modification>
				<staff>1</staff>
				<notations>
					<tuplet type='stop' number='1'/>
				</notations>
			</note>
			<harmony default-y='50'>
				<root>
					<root-step>E</root-step>
					<root-alter>-1</root-alter>
				</root>
				<kind>dominant</kind>
			</harmony>
			<note>
				<pitch>
					<step>G</step>
					<octave>4</octave>
				</pitch>
				<duration>8</duration>
				<voice>1</voice>
				<type>quarter</type>
				<time-modification>
					<actual-notes>3</actual-notes>
					<normal-notes>2</normal-notes>
				</time-modification>
				<staff>1</staff>
				<notations>
					<tuplet type='start' number='1'/>
				</notations>
			</note>
			<note>
				<pitch>
					<step>B</step>
					<alter>-1.0</alter>
					<octave>4</octave>
				</pitch>
				<duration>8</duration>
				<voice>1</voice>
				<type>quarter</type>
				<accidental>flat</accidental>
				<time-modification>
					<actual-notes>3</actual-notes>
					<normal-notes>2</normal-notes>
				</time-modification>
				<staff>1</staff>
			</note>
			<note>
				<pitch>
					<step>G</step>
					<octave>4</octave>
				</pitch>
				<duration>8</duration>
				<voice>1</voice>
				<type>quarter</type>
				<time-modification>
					<actual-notes>3</actual-notes>
					<normal-notes>2</normal-notes>
				</time-modification>
				<staff>1</staff>
				<notations>
					<tuplet type='stop' number='1'/>
				</notations>
			</note>
		</measure>
		<!--//////////////////// Part 1 | Measure 22 ////////////////////-->
		<measure number='22'>
			<attributes>
				<divisions>8</divisions>
			</attributes>
			<harmony default-y='50'>
				<root>
					<root-step>D</root-step>
				</root>
				<kind>dominant</kind>
			</harmony>
			<note>
				<pitch>
					<step>F</step>
					<alter>1.0</alter>
					<octave>4</octave>
				</pitch>
				<duration>8</duration>
				<voice>1</voice>
				<type>quarter</type>
				<staff>1</staff>
			</note>
			<note>
				<pitch>
					<step>D</step>
					<octave>4</octave>
				</pitch>
				<duration>16</duration>
				<voice>1</voice>
				<type>half</type>
				<staff>1</staff>
			</note>
			<note>
				<rest/>
				<duration>4</duration>
				<voice>1</voice>
				<type>eighth</type>
				<staff>1</staff>
			</note>
			<note>
				<pitch>
					<step>G</step>
					<octave>4</octave>
				</pitch>
				<duration>4</duration>
				<voice>1</voice>
				<type>eighth</type>
				<staff>1</staff>
			</note>
		</measure>
		<!--//////////////////// Part 1 | Measure 23 ////////////////////-->
		<measure number='23'>
			<attributes>
				<divisions>8</divisions>
			</attributes>
			<barline location='left'>
				<bar-style>light-light</bar-style>
			</barline>
			<harmony default-y='50'>
				<root>
					<root-step>G</root-step>
				</root>
				<kind>dominant</kind>
			</harmony>
			<note>
				<pitch>
					<step>B</step>
					<alter>-1.0</alter>
					<octave>4</octave>
				</pitch>
				<duration>4</duration>
				<voice>1</voice>
				<type>eighth</type>
				<accidental>flat</accidental>
				<staff>1</staff>
				<beam number='1'>begin</beam>
			</note>
			<note>
				<pitch>
					<step>B</step>
					<octave>4</octave>
				</pitch>
				<duration>4</duration>
				<voice>1</voice>
				<type>eighth</type>
				<accidental>natural</accidental>
				<staff>1</staff>
				<beam number='1'>continue</beam>
			</note>
			<note>
				<pitch>
					<step>C</step>
					<octave>5</octave>
				</pitch>
				<duration>4</duration>
				<voice>1</voice>
				<type>eighth</type>
				<staff>1</staff>
				<beam number='1'>continue</beam>
			</note>
			<note>
				<pitch>
					<step>C</step>
					<alter>1.0</alter>
					<octave>5</octave>
				</pitch>
				<duration>4</duration>
				<voice>1</voice>
				<type>eighth</type>
				<accidental>sharp</accidental>
				<staff>1</staff>
				<beam number='1'>end</beam>
			</note>
			<note>
				<pitch>
					<step>D</step>
					<octave>5</octave>
				</pitch>
				<duration>4</duration>
				<voice>1</voice>
				<type>eighth</type>
				<staff>1</staff>
				<beam number='1'>begin</beam>
			</note>
			<note>
				<pitch>
					<step>G</step>
					<octave>4</octave>
				</pitch>
				<duration>4</duration>
				<tie type='start'/>
				<voice>1</voice>
				<type>eighth</type>
				<staff>1</staff>
				<beam number='1'>end</beam>
				<notations>
					<tied type='start'/>
				</notations>
			</note>
			<note>
				<pitch>
					<step>G</step>
					<octave>4</octave>
				</pitch>
				<duration>8</duration>
				<tie type='stop'/>
				<voice>1</voice>
				<type>quarter</type>
				<staff>1</staff>
				<notations>
					<tied type='stop'/>
				</notations>
			</note>
		</measure>
		<!--//////////////////// Part 1 | Measure 24 ////////////////////-->
		<measure number='24'>
			<attributes>
				<divisions>8</divisions>
			</attributes>
			<harmony default-y='50'>
				<root>
					<root-step>C</root-step>
				</root>
				<kind>dominant</kind>
			</harmony>
			<note>
				<rest/>
				<duration>8</duration>
				<voice>1</voice>
				<type>quarter</type>
				<staff>1</staff>
			</note>
			<note>
				<rest/>
				<duration>4</duration>
				<voice>1</voice>
				<type>eighth</type>
				<staff>1</staff>
			</note>
			<note>
				<pitch>
					<step>E</step>
					<octave>5</octave>
				</pitch>
				<duration>4</duration>
				<voice>1</voice>
				<type>eighth</type>
				<staff>1</staff>
			</note>
			<note>
				<rest/>
				<duration>4</duration>
				<voice>1</voice>
				<type>eighth</type>
				<staff>1</staff>
			</note>
			<note>
				<pitch>
					<step>D</step>
					<octave>5</octave>
				</pitch>
				<duration>4</duration>
				<voice>1</voice>
				<type>eighth</type>
				<staff>1</staff>
			</note>
			<note>
				<pitch>
					<step>B</step>
					<alter>-1.0</alter>
					<octave>4</octave>
				</pitch>
				<duration>4</duration>
				<voice>1</voice>
				<type>eighth</type>
				<accidental>flat</accidental>
				<staff>1</staff>
				<beam number='1'>begin</beam>
			</note>
			<note>
				<pitch>
					<step>A</step>
					<octave>4</octave>
				</pitch>
				<duration>4</duration>
				<voice>1</voice>
				<type>eighth</type>
				<staff>1</staff>
				<beam number='1'>end</beam>
			</note>
		</measure>
		<!--//////////////////// Part 1 | Measure 25 ////////////////////-->
		<measure number='25'>
			<attributes>
				<divisions>8</divisions>
			</attributes>
			<harmony default-y='50'>
				<root>
					<root-step>G</root-step>
				</root>
				<kind>dominant</kind>
			</harmony>
			<note>
				<pitch>
					<step>G</step>
					<octave>4</octave>
				</pitch>
				<duration>24</duration>
				<voice>1</voice>
				<type>half</type>
				<dot/>
				<staff>1</staff>
			</note>
			<note>
				<pitch>
					<step>E</step>
					<octave>4</octave>
				</pitch>
				<duration>4</duration>
				<voice>1</voice>
				<type>eighth</type>
				<staff>1</staff>
				<beam number='1'>begin</beam>
			</note>
			<note>
				<pitch>
					<step>D</step>
					<octave>4</octave>
				</pitch>
				<duration>4</duration>
				<tie type='start'/>
				<voice>1</voice>
				<type>eighth</type>
				<staff>1</staff>
				<beam number='1'>end</beam>
				<notations>
					<tied type='start'/>
				</notations>
			</note>
		</measure>
		<!--//////////////////// Part 1 | Measure 26 ////////////////////-->
		<measure number='26'>
			<attributes>
				<divisions>8</divisions>
			</attributes>
			<note>
				<pitch>
					<step>D</step>
					<octave>4</octave>
				</pitch>
				<duration>24</duration>
				<tie type='stop'/>
				<voice>1</voice>
				<type>half</type>
				<dot/>
				<staff>1</staff>
				<notations>
					<tied type='stop'/>
				</notations>
			</note>
			<note>
				<rest/>
				<duration>4</duration>
				<voice>1</voice>
				<type>eighth</type>
				<staff>1</staff>
			</note>
			<note>
				<pitch>
					<step>G</step>
					<octave>4</octave>
				</pitch>
				<duration>4</duration>
				<voice>1</voice>
				<type>eighth</type>
				<staff>1</staff>
			</note>
		</measure>
		<!--//////////////////// Part 1 | Measure 27 ////////////////////-->
		<measure number='27'>
			<attributes>
				<divisions>8</divisions>
			</attributes>
			<harmony default-y='50'>
				<root>
					<root-step>C</root-step>
				</root>
				<kind>dominant</kind>
			</harmony>
			<note>
				<pitch>
					<step>B</step>
					<alter>-1.0</alter>
					<octave>4</octave>
				</pitch>
				<duration>4</duration>
				<voice>1</voice>
				<type>eighth</type>
				<accidental>flat</accidental>
				<staff>1</staff>
				<beam number='1'>begin</beam>
			</note>
			<note>
				<pitch>
					<step>B</step>
					<octave>4</octave>
				</pitch>
				<duration>4</duration>
				<voice>1</voice>
				<type>eighth</type>
				<accidental>natural</accidental>
				<staff>1</staff>
				<beam number='1'>continue</beam>
			</note>
			<note>
				<pitch>
					<step>C</step>
					<octave>5</octave>
				</pitch>
				<duration>4</duration>
				<voice>1</voice>
				<type>eighth</type>
				<staff>1</staff>
				<beam number='1'>continue</beam>
			</note>
			<note>
				<pitch>
					<step>C</step>
					<alter>1.0</alter>
					<octave>5</octave>
				</pitch>
				<duration>4</duration>
				<voice>1</voice>
				<type>eighth</type>
				<accidental>sharp</accidental>
				<staff>1</staff>
				<beam number='1'>end</beam>
			</note>
			<note>
				<pitch>
					<step>D</step>
					<octave>5</octave>
				</pitch>
				<duration>4</duration>
				<voice>1</voice>
				<type>eighth</type>
				<staff>1</staff>
				<beam number='1'>begin</beam>
			</note>
			<note>
				<pitch>
					<step>C</step>
					<octave>5</octave>
				</pitch>
				<duration>4</duration>
				<tie type='start'/>
				<voice>1</voice>
				<type>eighth</type>
				<accidental>natural</accidental>
				<staff>1</staff>
				<beam number='1'>end</beam>
				<notations>
					<tied type='start'/>
				</notations>
			</note>
			<note>
				<pitch>
					<step>C</step>
					<octave>5</octave>
				</pitch>
				<duration>8</duration>
				<tie type='stop'/>
				<voice>1</voice>
				<type>quarter</type>
				<staff>1</staff>
				<notations>
					<tied type='stop'/>
				</notations>
			</note>
		</measure>
		<!--//////////////////// Part 1 | Measure 28 ////////////////////-->
		<measure number='28'>
			<attributes>
				<divisions>8</divisions>
			</attributes>
			<note>
				<rest/>
				<duration>8</duration>
				<voice>1</voice>
				<type>quarter</type>
				<staff>1</staff>
			</note>
			<note>
				<rest/>
				<duration>4</duration>
				<voice>1</voice>
				<type>eighth</type>
				<staff>1</staff>
			</note>
			<note>
				<pitch>
					<step>E</step>
					<octave>5</octave>
				</pitch>
				<duration>4</duration>
				<voice>1</voice>
				<type>eighth</type>
				<staff>1</staff>
			</note>
			<note>
				<rest/>
				<duration>4</duration>
				<voice>1</voice>
				<type>eighth</type>
				<staff>1</staff>
			</note>
			<note>
				<pitch>
					<step>D</step>
					<octave>5</octave>
				</pitch>
				<duration>4</duration>
				<voice>1</voice>
				<type>eighth</type>
				<staff>1</staff>
			</note>
			<note>
				<pitch>
					<step>B</step>
					<alter>-1.0</alter>
					<octave>4</octave>
				</pitch>
				<duration>4</duration>
				<voice>1</voice>
				<type>eighth</type>
				<accidental>flat</accidental>
				<staff>1</staff>
				<beam number='1'>begin</beam>
			</note>
			<note>
				<pitch>
					<step>A</step>
					<octave>4</octave>
				</pitch>
				<duration>4</duration>
				<voice>1</voice>
				<type>eighth</type>
				<staff>1</staff>
				<beam number='1'>end</beam>
			</note>
		</measure>
		<!--//////////////////// Part 1 | Measure 29 ////////////////////-->
		<measure number='29'>
			<attributes>
				<divisions>8</divisions>
			</attributes>
			<harmony default-y='50'>
				<root>
					<root-step>G</root-step>
				</root>
				<kind>dominant</kind>
			</harmony>
			<note>
				<pitch>
					<step>G</step>
					<octave>4</octave>
				</pitch>
				<duration>24</duration>
				<voice>1</voice>
				<type>half</type>
				<dot/>
				<staff>1</staff>
			</note>
			<note>
				<pitch>
					<step>E</step>
					<octave>4</octave>
				</pitch>
				<duration>4</duration>
				<voice>1</voice>
				<type>eighth</type>
				<staff>1</staff>
				<beam number='1'>begin</beam>
			</note>
			<note>
				<pitch>
					<step>D</step>
					<octave>4</octave>
				</pitch>
				<duration>4</duration>
				<tie type='start'/>
				<voice>1</voice>
				<type>eighth</type>
				<staff>1</staff>
				<beam number='1'>end</beam>
				<notations>
					<tied type='start'/>
				</notations>
			</note>
		</measure>
		<!--//////////////////// Part 1 | Measure 30 ////////////////////-->
		<measure number='30'>
			<attributes>
				<divisions>32</divisions>
			</attributes>
			<note>
				<pitch>
					<step>D</step>
					<octave>4</octave>
				</pitch>
				<duration>96</duration>
				<tie type='stop'/>
				<voice>1</voice>
				<type>half</type>
				<dot/>
				<staff>1</staff>
				<notations>
					<tied type='stop'/>
				</notations>
			</note>
			<note>
				<pitch>
					<step>G</step>
					<octave>4</octave>
				</pitch>
				<duration>16</duration>
				<voice>1</voice>
				<type>eighth</type>
				<staff>1</staff>
				<beam number='1'>begin</beam>
			</note>
			<note>
				<pitch>
					<step>B</step>
					<alter>-1.0</alter>
					<octave>4</octave>
				</pitch>
				<duration>4</duration>
				<voice>1</voice>
				<type>32nd</type>
				<accidental>flat</accidental>
				<staff>1</staff>
				<beam number='1'>continue</beam>
				<beam number='2'>begin</beam>
				<beam number='3'>begin</beam>
			</note>
			<note>
				<pitch>
					<step>B</step>
					<octave>4</octave>
				</pitch>
				<duration>4</duration>
				<voice>1</voice>
				<type>32nd</type>
				<accidental>natural</accidental>
				<staff>1</staff>
				<beam number='1'>continue</beam>
				<beam number='2'>continue</beam>
				<beam number='3'>continue</beam>
			</note>
			<note>
				<pitch>
					<step>C</step>
					<octave>5</octave>
				</pitch>
				<duration>4</duration>
				<voice>1</voice>
				<type>32nd</type>
				<staff>1</staff>
				<beam number='1'>continue</beam>
				<beam number='2'>continue</beam>
				<beam number='3'>continue</beam>
			</note>
			<note>
				<pitch>
					<step>C</step>
					<alter>1.0</alter>
					<octave>5</octave>
				</pitch>
				<duration>4</duration>
				<voice>1</voice>
				<type>32nd</type>
				<accidental>sharp</accidental>
				<staff>1</staff>
				<beam number='1'>end</beam>
				<beam number='2'>end</beam>
				<beam number='3'>end</beam>
			</note>
		</measure>
		<!--//////////////////// Part 1 | Measure 31 ////////////////////-->
		<measure number='31'>
			<attributes>
				<divisions>8</divisions>
			</attributes>
			<harmony default-y='50'>
				<root>
					<root-step>D</root-step>
				</root>
				<kind>dominant</kind>
			</harmony>
			<note>
				<pitch>
					<step>D</step>
					<octave>5</octave>
				</pitch>
				<duration>4</duration>
				<voice>1</voice>
				<type>eighth</type>
				<staff>1</staff>
				<beam number='1'>begin</beam>
			</note>
			<note>
				<pitch>
					<step>C</step>
					<alter>1.0</alter>
					<octave>5</octave>
				</pitch>
				<duration>4</duration>
				<voice>1</voice>
				<type>eighth</type>
				<accidental>sharp</accidental>
				<staff>1</staff>
				<beam number='1'>continue</beam>
			</note>
			<note>
				<pitch>
					<step>D</step>
					<octave>5</octave>
				</pitch>
				<duration>4</duration>
				<voice>1</voice>
				<type>eighth</type>
				<staff>1</staff>
				<beam number='1'>continue</beam>
			</note>
			<note>
				<pitch>
					<step>C</step>
					<alter>1.0</alter>
					<octave>5</octave>
				</pitch>
				<duration>4</duration>
				<voice>1</voice>
				<type>eighth</type>
				<staff>1</staff>
				<beam number='1'>end</beam>
			</note>
			<note>
				<pitch>
					<step>D</step>
					<octave>5</octave>
				</pitch>
				<duration>4</duration>
				<voice>1</voice>
				<type>eighth</type>
				<staff>1</staff>
				<beam number='1'>begin</beam>
			</note>
			<note>
				<pitch>
					<step>C</step>
					<octave>5</octave>
				</pitch>
				<duration>4</duration>
				<tie type='start'/>
				<voice>1</voice>
				<type>eighth</type>
				<accidental>natural</accidental>
				<staff>1</staff>
				<beam number='1'>end</beam>
				<notations>
					<tied type='start'/>
				</notations>
			</note>
			<note>
				<pitch>
					<step>C</step>
					<octave>5</octave>
				</pitch>
				<duration>8</duration>
				<tie type='stop'/>
				<voice>1</voice>
				<type>quarter</type>
				<staff>1</staff>
				<notations>
					<tied type='stop'/>
				</notations>
			</note>
		</measure>
		<!--//////////////////// Part 1 | Measure 32 ////////////////////-->
		<measure number='32'>
			<attributes>
				<divisions>8</divisions>
			</attributes>
			<harmony default-y='50'>
				<root>
					<root-step>C</root-step>
				</root>
				<kind>dominant</kind>
			</harmony>
			<note>
				<rest/>
				<duration>8</duration>
				<voice>1</voice>
				<type>quarter</type>
				<staff>1</staff>
			</note>
			<note>
				<pitch>
					<step>B</step>
					<alter>-1.0</alter>
					<octave>4</octave>
				</pitch>
				<duration>4</duration>
				<voice>1</voice>
				<type>eighth</type>
				<accidental>flat</accidental>
				<staff>1</staff>
				<beam number='1'>begin</beam>
			</note>
			<note>
				<pitch>
					<step>A</step>
					<octave>4</octave>
				</pitch>
				<duration>4</duration>
				<tie type='start'/>
				<voice>1</voice>
				<type>eighth</type>
				<staff>1</staff>
				<beam number='1'>end</beam>
				<notations>
					<tied type='start'/>
				</notations>
			</note>
			<note>
				<pitch>
					<step>A</step>
					<octave>4</octave>
				</pitch>
				<duration>4</duration>
				<tie type='stop'/>
				<voice>1</voice>
				<type>eighth</type>
				<staff>1</staff>
				<beam number='1'>begin</beam>
				<notations>
					<tied type='stop'/>
				</notations>
			</note>
			<note>
				<pitch>
					<step>G</step>
					<octave>4</octave>
				</pitch>
				<duration>4</duration>
				<voice>1</voice>
				<type>eighth</type>
				<staff>1</staff>
				<beam number='1'>continue</beam>
			</note>
			<note>
				<pitch>
					<step>E</step>
					<octave>4</octave>
				</pitch>
				<duration>4</duration>
				<voice>1</voice>
				<type>eighth</type>
				<staff>1</staff>
				<beam number='1'>continue</beam>
			</note>
			<note>
				<pitch>
					<step>D</step>
					<octave>4</octave>
				</pitch>
				<duration>4</duration>
				<voice>1</voice>
				<type>eighth</type>
				<staff>1</staff>
				<beam number='1'>end</beam>
			</note>
		</measure>
		<!--//////////////////// Part 1 | Measure 33 ////////////////////-->
		<measure number='33'>
			<attributes>
				<divisions>8</divisions>
			</attributes>
			<harmony default-y='50'>
				<root>
					<root-step>G</root-step>
				</root>
				<kind>dominant</kind>
			</harmony>
			<note>
				<pitch>
					<step>G</step>
					<octave>4</octave>
				</pitch>
				<duration>24</duration>
				<voice>1</voice>
				<type>half</type>
				<dot/>
				<staff>1</staff>
			</note>
			<note>
				<pitch>
					<step>E</step>
					<octave>4</octave>
				</pitch>
				<duration>4</duration>
				<voice>1</voice>
				<type>eighth</type>
				<staff>1</staff>
				<beam number='1'>begin</beam>
			</note>
			<note>
				<pitch>
					<step>D</step>
					<octave>4</octave>
				</pitch>
				<duration>4</duration>
				<tie type='start'/>
				<voice>1</voice>
				<type>eighth</type>
				<staff>1</staff>
				<beam number='1'>end</beam>
				<notations>
					<tied type='start'/>
				</notations>
			</note>
		</measure>
		<!--//////////////////// Part 1 | Measure 34 ////////////////////-->
		<measure number='34'>
			<attributes>
				<divisions>8</divisions>
			</attributes>
			<note>
				<pitch>
					<step>D</step>
					<octave>4</octave>
				</pitch>
				<duration>24</duration>
				<tie type='stop'/>
				<voice>1</voice>
				<type>half</type>
				<dot/>
				<staff>1</staff>
				<notations>
					<tied type='stop'/>
				</notations>
			</note>
			<note>
				<rest/>
				<duration>4</duration>
				<voice>1</voice>
				<type>eighth</type>
				<staff>1</staff>
			</note>
			<note>
				<pitch>
					<step>G</step>
					<octave>4</octave>
				</pitch>
				<duration>4</duration>
				<voice>1</voice>
				<type>eighth</type>
				<staff>1</staff>
			</note>
		</measure>
		<!--//////////////////// Part 1 | Measure 35 ////////////////////-->
		<measure number='35'>
			<attributes>
				<divisions>12</divisions>
			</attributes>
			<barline location='left'>
				<bar-style>light-light</bar-style>
			</barline>
			<direction>
				<direction-type>
					<words default-y='20'>Coda</words>
				</direction-type>
			</direction>
			<harmony default-y='50'>
				<root>
					<root-step>D</root-step>
				</root>
				<kind>dominant</kind>
			</harmony>
			<note>
				<pitch>
					<step>D</step>
					<octave>4</octave>
				</pitch>
				<duration>24</duration>
				<voice>1</voice>
				<type>half</type>
				<staff>1</staff>
			</note>
			<note>
				<pitch>
					<step>D</step>
					<octave>4</octave>
				</pitch>
				<duration>4</duration>
				<voice>1</voice>
				<type>eighth</type>
				<time-modification>
					<actual-notes>3</actual-notes>
					<normal-notes>2</normal-notes>
				</time-modification>
				<staff>1</staff>
				<beam number='1'>begin</beam>
				<notations>
					<tuplet type='start' number='1'/>
				</notations>
			</note>
			<note>
				<pitch>
					<step>E</step>
					<octave>4</octave>
				</pitch>
				<duration>4</duration>
				<voice>1</voice>
				<type>eighth</type>
				<time-modification>
					<actual-notes>3</actual-notes>
					<normal-notes>2</normal-notes>
				</time-modification>
				<staff>1</staff>
				<beam number='1'>continue</beam>
			</note>
			<note>
				<pitch>
					<step>G</step>
					<octave>4</octave>
				</pitch>
				<duration>4</duration>
				<voice>1</voice>
				<type>eighth</type>
				<time-modification>
					<actual-notes>3</actual-notes>
					<normal-notes>2</normal-notes>
				</time-modification>
				<staff>1</staff>
				<beam number='1'>end</beam>
				<notations>
					<tuplet type='stop' number='1'/>
				</notations>
			</note>
			<note>
				<pitch>
					<step>B</step>
					<alter>-1.0</alter>
					<octave>4</octave>
				</pitch>
				<duration>4</duration>
				<voice>1</voice>
				<type>eighth</type>
				<accidental>flat</accidental>
				<time-modification>
					<actual-notes>3</actual-notes>
					<normal-notes>2</normal-notes>
				</time-modification>
				<staff>1</staff>
				<beam number='1'>begin</beam>
				<notations>
					<tuplet type='start' number='1'/>
				</notations>
			</note>
			<note>
				<pitch>
					<step>A</step>
					<octave>4</octave>
				</pitch>
				<duration>4</duration>
				<voice>1</voice>
				<type>eighth</type>
				<time-modification>
					<actual-notes>3</actual-notes>
					<normal-notes>2</normal-notes>
				</time-modification>
				<staff>1</staff>
				<beam number='1'>continue</beam>
			</note>
			<note>
				<pitch>
					<step>G</step>
					<octave>4</octave>
				</pitch>
				<duration>4</duration>
				<tie type='start'/>
				<voice>1</voice>
				<type>eighth</type>
				<time-modification>
					<actual-notes>3</actual-notes>
					<normal-notes>2</normal-notes>
				</time-modification>
				<staff>1</staff>
				<beam number='1'>end</beam>
				<notations>
					<tied type='start'/>
					<tuplet type='stop' number='1'/>
				</notations>
			</note>
		</measure>
		<!--//////////////////// Part 1 | Measure 36 ////////////////////-->
		<measure number='36'>
			<attributes>
				<divisions>8</divisions>
			</attributes>
			<harmony default-y='50'>
				<root>
					<root-step>G</root-step>
				</root>
				<kind>dominant</kind>
			</harmony>
			<note>
				<pitch>
					<step>G</step>
					<octave>4</octave>
				</pitch>
				<duration>24</duration>
				<tie type='stop'/>
				<voice>1</voice>
				<type>half</type>
				<dot/>
				<staff>1</staff>
				<notations>
					<tied type='stop'/>
				</notations>
			</note>
			<note>
				<pitch>
					<step>E</step>
					<octave>4</octave>
				</pitch>
				<duration>4</duration>
				<voice>1</voice>
				<type>eighth</type>
				<staff>1</staff>
				<beam number='1'>begin</beam>
			</note>
			<note>
				<pitch>
					<step>D</step>
					<octave>4</octave>
				</pitch>
				<duration>4</duration>
				<tie type='start'/>
				<voice>1</voice>
				<type>eighth</type>
				<staff>1</staff>
				<beam number='1'>end</beam>
				<notations>
					<tied type='start'/>
				</notations>
			</note>
		</measure>
		<!--//////////////////// Part 1 | Measure 37 ////////////////////-->
		<measure number='37'>
			<attributes>
				<divisions>12</divisions>
			</attributes>
			<harmony default-y='50'>
				<root>
					<root-step>D</root-step>
				</root>
				<kind>dominant</kind>
			</harmony>
			<note>
				<pitch>
					<step>D</step>
					<octave>4</octave>
				</pitch>
				<duration>24</duration>
				<tie type='stop'/>
				<voice>1</voice>
				<type>half</type>
				<staff>1</staff>
				<notations>
					<tied type='stop'/>
				</notations>
			</note>
			<note>
				<pitch>
					<step>D</step>
					<octave>4</octave>
				</pitch>
				<duration>4</duration>
				<voice>1</voice>
				<type>eighth</type>
				<time-modification>
					<actual-notes>3</actual-notes>
					<normal-notes>2</normal-notes>
				</time-modification>
				<staff>1</staff>
				<beam number='1'>begin</beam>
				<notations>
					<tuplet type='start' number='1'/>
				</notations>
			</note>
			<note>
				<pitch>
					<step>E</step>
					<octave>4</octave>
				</pitch>
				<duration>4</duration>
				<voice>1</voice>
				<type>eighth</type>
				<time-modification>
					<actual-notes>3</actual-notes>
					<normal-notes>2</normal-notes>
				</time-modification>
				<staff>1</staff>
				<beam number='1'>continue</beam>
			</note>
			<note>
				<pitch>
					<step>G</step>
					<octave>4</octave>
				</pitch>
				<duration>4</duration>
				<voice>1</voice>
				<type>eighth</type>
				<time-modification>
					<actual-notes>3</actual-notes>
					<normal-notes>2</normal-notes>
				</time-modification>
				<staff>1</staff>
				<beam number='1'>end</beam>
				<notations>
					<tuplet type='stop' number='1'/>
				</notations>
			</note>
			<note>
				<pitch>
					<step>B</step>
					<alter>-1.0</alter>
					<octave>4</octave>
				</pitch>
				<duration>4</duration>
				<voice>1</voice>
				<type>eighth</type>
				<accidental>flat</accidental>
				<time-modification>
					<actual-notes>3</actual-notes>
					<normal-notes>2</normal-notes>
				</time-modification>
				<staff>1</staff>
				<beam number='1'>begin</beam>
				<notations>
					<tuplet type='start' number='1'/>
				</notations>
			</note>
			<note>
				<pitch>
					<step>A</step>
					<octave>4</octave>
				</pitch>
				<duration>4</duration>
				<voice>1</voice>
				<type>eighth</type>
				<time-modification>
					<actual-notes>3</actual-notes>
					<normal-notes>2</normal-notes>
				</time-modification>
				<staff>1</staff>
				<beam number='1'>continue</beam>
			</note>
			<note>
				<pitch>
					<step>G</step>
					<octave>4</octave>
				</pitch>
				<duration>4</duration>
				<tie type='start'/>
				<voice>1</voice>
				<type>eighth</type>
				<time-modification>
					<actual-notes>3</actual-notes>
					<normal-notes>2</normal-notes>
				</time-modification>
				<staff>1</staff>
				<beam number='1'>end</beam>
				<notations>
					<tied type='start'/>
					<tuplet type='stop' number='1'/>
				</notations>
			</note>
		</measure>
		<!--//////////////////// Part 1 | Measure 38 ////////////////////-->
		<measure number='38'>
			<attributes>
				<divisions>8</divisions>
			</attributes>
			<harmony default-y='50'>
				<root>
					<root-step>G</root-step>
				</root>
				<kind>dominant</kind>
			</harmony>
			<note>
				<pitch>
					<step>G</step>
					<octave>4</octave>
				</pitch>
				<duration>24</duration>
				<tie type='stop'/>
				<voice>1</voice>
				<type>half</type>
				<dot/>
				<staff>1</staff>
				<notations>
					<tied type='stop'/>
				</notations>
			</note>
			<note>
				<pitch>
					<step>E</step>
					<octave>4</octave>
				</pitch>
				<duration>4</duration>
				<voice>1</voice>
				<type>eighth</type>
				<staff>1</staff>
				<beam number='1'>begin</beam>
			</note>
			<note>
				<pitch>
					<step>D</step>
					<octave>4</octave>
				</pitch>
				<duration>4</duration>
				<tie type='start'/>
				<voice>1</voice>
				<type>eighth</type>
				<staff>1</staff>
				<beam number='1'>end</beam>
				<notations>
					<tied type='start'/>
				</notations>
			</note>
		</measure>
		<!--//////////////////// Part 1 | Measure 39 ////////////////////-->
		<measure number='39'>
			<attributes>
				<divisions>12</divisions>
			</attributes>
			<harmony default-y='50'>
				<root>
					<root-step>D</root-step>
				</root>
				<kind>dominant</kind>
			</harmony>
			<note>
				<pitch>
					<step>D</step>
					<octave>4</octave>
				</pitch>
				<duration>24</duration>
				<tie type='stop'/>
				<voice>1</voice>
				<type>half</type>
				<staff>1</staff>
				<notations>
					<tied type='stop'/>
				</notations>
			</note>
			<note>
				<rest/>
				<duration>4</duration>
				<voice>1</voice>
				<type>eighth</type>
				<time-modification>
					<actual-notes>3</actual-notes>
					<normal-notes>2</normal-notes>
				</time-modification>
				<staff>1</staff>
				<notations>
					<tuplet type='start' number='1'/>
				</notations>
			</note>
			<note>
				<pitch>
					<step>C</step>
					<alter>1.0</alter>
					<octave>5</octave>
				</pitch>
				<duration>4</duration>
				<voice>1</voice>
				<type>eighth</type>
				<accidental>sharp</accidental>
				<time-modification>
					<actual-notes>3</actual-notes>
					<normal-notes>2</normal-notes>
				</time-modification>
				<staff>1</staff>
				<beam number='1'>begin</beam>
			</note>
			<note>
				<pitch>
					<step>D</step>
					<octave>5</octave>
				</pitch>
				<duration>4</duration>
				<voice>1</voice>
				<type>eighth</type>
				<time-modification>
					<actual-notes>3</actual-notes>
					<normal-notes>2</normal-notes>
				</time-modification>
				<staff>1</staff>
				<beam number='1'>end</beam>
				<notations>
					<tuplet type='stop' number='1'/>
				</notations>
			</note>
			<note>
				<pitch>
					<step>B</step>
					<alter>-1.0</alter>
					<octave>4</octave>
				</pitch>
				<duration>4</duration>
				<voice>1</voice>
				<type>eighth</type>
				<accidental>flat</accidental>
				<time-modification>
					<actual-notes>3</actual-notes>
					<normal-notes>2</normal-notes>
				</time-modification>
				<staff>1</staff>
				<beam number='1'>begin</beam>
				<notations>
					<tuplet type='start' number='1'/>
				</notations>
			</note>
			<note>
				<pitch>
					<step>A</step>
					<octave>4</octave>
				</pitch>
				<duration>4</duration>
				<voice>1</voice>
				<type>eighth</type>
				<time-modification>
					<actual-notes>3</actual-notes>
					<normal-notes>2</normal-notes>
				</time-modification>
				<staff>1</staff>
				<beam number='1'>continue</beam>
			</note>
			<note>
				<pitch>
					<step>E</step>
					<octave>4</octave>
				</pitch>
				<duration>4</duration>
				<voice>1</voice>
				<type>eighth</type>
				<time-modification>
					<actual-notes>3</actual-notes>
					<normal-notes>2</normal-notes>
				</time-modification>
				<staff>1</staff>
				<beam number='1'>end</beam>
				<notations>
					<tuplet type='stop' number='1'/>
				</notations>
			</note>
		</measure>
		<!--//////////////////// Part 1 | Measure 40 ////////////////////-->
		<measure number='40'>
			<attributes>
				<divisions>4</divisions>
			</attributes>
			<harmony default-y='50'>
				<root>
					<root-step>G</root-step>
				</root>
				<kind>dominant</kind>
			</harmony>
			<note>
				<pitch>
					<step>G</step>
					<octave>4</octave>
				</pitch>
				<duration>16</duration>
				<voice>1</voice>
				<type>whole</type>
				<staff>1</staff>
			</note>
		</measure>
		<!--//////////////////// Part 1 | Measure 41 ////////////////////-->
		<measure number='41'>
			<attributes>
				<divisions>4</divisions>
			</attributes>
			<note>
				<rest/>
				<duration>16</duration>
				<voice>1</voice>
				<type>whole</type>
				<staff>1</staff>
			</note>
			<barline location='right'>
				<bar-style>light-heavy</bar-style>
			</barline>
		</measure>
	</part>
</score-partwise>
